<svg xmlns="http://www.w3.org/2000/svg" width="768" height="1280" viewBox="0 0 768 1280">
  <defs>
    <pattern id="grid604" width="24" height="24" patternUnits="userSpaceOnUse">
      <path d="M 24 0 L 0 0 0 24" fill="none" stroke="#ece8e1" stroke-width="1"/>
    </pattern>
  </defs>
  <rect width="768" height="1280" fill="#fbf8f2"/>
  <rect width="768" height="1280" fill="url(#grid604)"/>
  <circle cx="632" cy="924" r="88" fill="#f6d983" opacity="0.55"/>
  <circle cx="680" cy="976" r="48" fill="#ffea00" opacity="0.95"/>
  <text x="44" y="78" fill="#f0b73b" font-size="40" font-weight="800" font-family="Noto Sans TC, Microsoft JhengHei, sans-serif">A</text>
  <text x="40" y="122" fill="#f0b73b" font-size="40" font-weight="800" font-family="Noto Sans TC, Microsoft JhengHei, sans-serif">6</text>
  <text x="40" y="166" fill="#f0b73b" font-size="40" font-weight="800" font-family="Noto Sans TC, Microsoft JhengHei, sans-serif">0</text>
  <text x="40" y="210" fill="#f0b73b" font-size="40" font-weight="800" font-family="Noto Sans TC, Microsoft JhengHei, sans-serif">4</text>
  <text x="24" y="302" fill="#f0b73b" font-size="30" font-weight="800" font-family="Noto Sans TC, Microsoft JhengHei, sans-serif">個案教室</text>
  <text x="30" y="400" fill="#7f6f59" font-size="16" font-family="Noto Sans TC, Microsoft JhengHei, sans-serif">心理・教育・人文藝術・行為分析</text>
  <line x1="272" y1="82" x2="272" y2="1168" stroke="#efb0a0" stroke-width="4"/>
  <g font-family="Noto Sans TC, Microsoft JhengHei, sans-serif">
    <g transform="translate(0 0)"><circle cx="272" cy="120" r="7" fill="#efb0a0"/><text x="82" y="126" fill="#26245d" font-size="24" font-weight="700">10:05-10:20</text><text x="294" y="116" fill="#26245d" font-size="26" font-weight="900">林小聖</text><text x="394" y="116" fill="#6b5f48" font-size="15" font-weight="700">黑田視覺整合</text><text x="294" y="148" fill="#d07f42" font-size="18" textLength="410" lengthAdjust="spacingAndGlyphs">人際關係對小型設計公司的重要性</text></g>
    <g transform="translate(0 74)"><circle cx="272" cy="120" r="7" fill="#efb0a0"/><text x="82" y="126" fill="#26245d" font-size="24" font-weight="700">10:20-10:35</text><text x="294" y="116" fill="#26245d" font-size="26" font-weight="900">范露莎</text><text x="294" y="148" fill="#d07f42" font-size="16" textLength="430" lengthAdjust="spacingAndGlyphs">自閉症患者從眾行為之社交偽裝的心理影響</text></g>
    <g transform="translate(0 148)"><circle cx="272" cy="120" r="7" fill="#efb0a0"/><text x="82" y="126" fill="#26245d" font-size="24" font-weight="700">10:35-10:50</text><text x="294" y="116" fill="#26245d" font-size="26" font-weight="900">華美珍</text><text x="294" y="148" fill="#d07f42" font-size="20" textLength="402" lengthAdjust="spacingAndGlyphs">自閉症兒童的學習過程</text></g>
    <g transform="translate(0 222)"><circle cx="272" cy="120" r="7" fill="#efb0a0"/><text x="82" y="126" fill="#26245d" font-size="24" font-weight="700">10:50-11:05</text><text x="294" y="116" fill="#26245d" font-size="26" font-weight="900">竹 麗</text><text x="294" y="148" fill="#d07f42" font-size="18" textLength="410" lengthAdjust="spacingAndGlyphs">臺美大學生理財行為的比較</text></g>
    <g transform="translate(0 320)"><circle cx="272" cy="120" r="7" fill="#efb0a0"/><text x="82" y="126" fill="#26245d" font-size="24" font-weight="700">11:15-11:30</text><text x="294" y="116" fill="#26245d" font-size="26" font-weight="900">柯海琳</text><text x="294" y="148" fill="#d07f42" font-size="16" textLength="430" lengthAdjust="spacingAndGlyphs">城鄉差距與臺灣雙語教育成效之關聯</text></g>
    <g transform="translate(0 394)"><circle cx="272" cy="120" r="7" fill="#efb0a0"/><text x="82" y="126" fill="#26245d" font-size="24" font-weight="700">11:30-11:45</text><text x="294" y="116" fill="#26245d" font-size="26" font-weight="900">江雨川</text><text x="294" y="148" fill="#d07f42" font-size="15" textLength="438" lengthAdjust="spacingAndGlyphs">小團體策略對ASD學生情緒調節與人際互動之影響</text></g>
    <g transform="translate(0 468)"><circle cx="272" cy="120" r="7" fill="#efb0a0"/><text x="82" y="126" fill="#26245d" font-size="24" font-weight="700">11:45-12:00</text><text x="294" y="116" fill="#26245d" font-size="26" font-weight="900">郭吉達</text><text x="294" y="148" fill="#d07f42" font-size="18" textLength="410" lengthAdjust="spacingAndGlyphs">AI語音合成中的「口音」與「偏見」</text></g>
    <g transform="translate(0 542)"><circle cx="272" cy="120" r="7" fill="#efb0a0"/><text x="82" y="126" fill="#26245d" font-size="24" font-weight="700">12:00-12:15</text><text x="294" y="116" fill="#26245d" font-size="26" font-weight="900">梁安妮</text><text x="294" y="148" fill="#d07f42" font-size="14" textLength="442" lengthAdjust="spacingAndGlyphs">以代理式人工智慧建構對話式購物推薦系統：以滑鼠選購情境為例</text></g>
    <g transform="translate(0 666)"><circle cx="272" cy="120" r="7" fill="#efb0a0"/><text x="82" y="126" fill="#26245d" font-size="24" font-weight="700">13:50-14:05</text><text x="294" y="116" fill="#26245d" font-size="26" font-weight="900">范露莎</text><text x="394" y="116" fill="#6b5f48" font-size="15" font-weight="700">自閉症總會</text><text x="294" y="148" fill="#d07f42" font-size="16" textLength="430" lengthAdjust="spacingAndGlyphs">自閉症患者在職場的溝通策略</text></g>
    <g transform="translate(0 740)"><circle cx="272" cy="120" r="7" fill="#efb0a0"/><text x="82" y="126" fill="#26245d" font-size="24" font-weight="700">14:05-14:20</text><text x="294" y="116" fill="#26245d" font-size="26" font-weight="900">楊子璇</text><text x="294" y="148" fill="#d07f42" font-size="18" textLength="410" lengthAdjust="spacingAndGlyphs">臺灣的原住民語言復興運動</text></g>
    <g transform="translate(0 814)"><circle cx="272" cy="120" r="7" fill="#efb0a0"/><text x="82" y="126" fill="#26245d" font-size="24" font-weight="700">14:20-14:35</text><text x="294" y="116" fill="#26245d" font-size="26" font-weight="900">貝 責</text><text x="294" y="148" fill="#d07f42" font-size="15" textLength="438" lengthAdjust="spacingAndGlyphs">臺灣原住民如何使用藝術進行文化抵抗與保留</text></g>
    <g transform="translate(0 912)"><circle cx="272" cy="120" r="7" fill="#efb0a0"/><text x="82" y="126" fill="#26245d" font-size="24" font-weight="700">14:45-15:00</text><text x="294" y="116" fill="#26245d" font-size="26" font-weight="900">柯海琳</text><text x="294" y="148" fill="#d07f42" font-size="15" textLength="438" lengthAdjust="spacingAndGlyphs">博物館作為第二教室－故宮博物院的教育功能探討</text></g>
    <g transform="translate(0 986)"><circle cx="272" cy="120" r="7" fill="#efb0a0"/><text x="82" y="126" fill="#26245d" font-size="24" font-weight="700">15:00-15:15</text><text x="294" y="116" fill="#26245d" font-size="26" font-weight="900">郭琳熙</text><text x="294" y="148" fill="#d07f42" font-size="17" textLength="422" lengthAdjust="spacingAndGlyphs">走進青銅時代｜「赫列克蘇爾」的古代墳墓</text></g>
    <g transform="translate(0 1060)"><circle cx="272" cy="120" r="7" fill="#efb0a0"/><text x="82" y="126" fill="#26245d" font-size="24" font-weight="700">15:15-15:30</text><text x="294" y="116" fill="#26245d" font-size="26" font-weight="900">林小聖</text><text x="294" y="148" fill="#d07f42" font-size="17" textLength="422" lengthAdjust="spacingAndGlyphs">比較臺美字型創作與產業概況</text></g>
  </g>
</svg>