<svg xmlns="http://www.w3.org/2000/svg" width="768" height="1280" viewBox="0 0 768 1280">
  <defs>
    <pattern id="grid605" width="24" height="24" patternUnits="userSpaceOnUse">
      <path d="M 24 0 L 0 0 0 24" fill="none" stroke="#ece8e1" stroke-width="1"/>
    </pattern>
  </defs>
  <rect width="768" height="1280" fill="#fbf8f2"/>
  <rect width="768" height="1280" fill="url(#grid605)"/>
  <circle cx="632" cy="924" r="88" fill="#f6d983" opacity="0.55"/>
  <circle cx="680" cy="976" r="48" fill="#ffea00" opacity="0.95"/>
  <text x="44" y="78" fill="#f0b73b" font-size="40" font-weight="800" font-family="Noto Sans TC, Microsoft JhengHei, sans-serif">A</text>
  <text x="40" y="122" fill="#f0b73b" font-size="40" font-weight="800" font-family="Noto Sans TC, Microsoft JhengHei, sans-serif">6</text>
  <text x="40" y="166" fill="#f0b73b" font-size="40" font-weight="800" font-family="Noto Sans TC, Microsoft JhengHei, sans-serif">0</text>
  <text x="40" y="210" fill="#f0b73b" font-size="40" font-weight="800" font-family="Noto Sans TC, Microsoft JhengHei, sans-serif">5</text>
  <text x="24" y="302" fill="#f0b73b" font-size="30" font-weight="800" font-family="Noto Sans TC, Microsoft JhengHei, sans-serif">個案教室</text>
  <text x="30" y="400" fill="#7f6f59" font-size="16" font-family="Noto Sans TC, Microsoft JhengHei, sans-serif">AI・軟體・半導體・醫療・資安・環境</text>
  <line x1="272" y1="82" x2="272" y2="1208" stroke="#efb0a0" stroke-width="4"/>
  <g font-family="Noto Sans TC, Microsoft JhengHei, sans-serif">
    <g transform="translate(0 -4)"><circle cx="272" cy="120" r="7" fill="#efb0a0"/><text x="82" y="126" fill="#26245d" font-size="24" font-weight="700">10:05-10:20</text><text x="294" y="116" fill="#26245d" font-size="26" font-weight="900">彭 毅</text><text x="294" y="148" fill="#d07f42" font-size="20" textLength="402" lengthAdjust="spacingAndGlyphs">網絡安全：無聲的守護者</text></g>
    <g transform="translate(0 68)"><circle cx="272" cy="120" r="7" fill="#efb0a0"/><text x="82" y="126" fill="#26245d" font-size="24" font-weight="700">10:20-10:35</text><text x="294" y="116" fill="#26245d" font-size="26" font-weight="900">楊怡珠</text><text x="294" y="148" fill="#d07f42" font-size="18" textLength="410" lengthAdjust="spacingAndGlyphs">非英語母語者學習編程的挑戰</text></g>
    <g transform="translate(0 140)"><circle cx="272" cy="120" r="7" fill="#efb0a0"/><text x="82" y="126" fill="#26245d" font-size="24" font-weight="700">10:35-10:50</text><text x="294" y="116" fill="#26245d" font-size="26" font-weight="900">福媛芳</text><text x="294" y="148" fill="#d07f42" font-size="17" textLength="422" lengthAdjust="spacingAndGlyphs">知己知彼：孫子兵法在網絡防禦中的運用</text></g>
    <g transform="translate(0 212)"><circle cx="272" cy="120" r="7" fill="#efb0a0"/><text x="82" y="126" fill="#26245d" font-size="24" font-weight="700">10:50-11:05</text><text x="294" y="116" fill="#26245d" font-size="26" font-weight="900">徐芯怡</text><text x="394" y="116" fill="#6b5f48" font-size="15" font-weight="700">陽明交大</text><text x="294" y="148" fill="#d07f42" font-size="14" textLength="442" lengthAdjust="spacingAndGlyphs">醫療影像（X射線）與物質相互作用的屏蔽機制</text></g>
    <g transform="translate(0 308)"><circle cx="272" cy="120" r="7" fill="#efb0a0"/><text x="82" y="126" fill="#26245d" font-size="24" font-weight="700">11:15-11:30</text><text x="294" y="116" fill="#26245d" font-size="26" font-weight="900">何安娜</text><text x="294" y="148" fill="#d07f42" font-size="18" textLength="410" lengthAdjust="spacingAndGlyphs">衰老對疫苗免疫反應的影響</text></g>
    <g transform="translate(0 380)"><circle cx="272" cy="120" r="7" fill="#efb0a0"/><text x="82" y="126" fill="#26245d" font-size="24" font-weight="700">11:30-11:45</text><text x="294" y="116" fill="#26245d" font-size="26" font-weight="900">冉燦蕊</text><text x="294" y="148" fill="#d07f42" font-size="20" textLength="402" lengthAdjust="spacingAndGlyphs">臺灣的垃圾管理制度</text></g>
    <g transform="translate(0 452)"><circle cx="272" cy="120" r="7" fill="#efb0a0"/><text x="82" y="126" fill="#26245d" font-size="24" font-weight="700">11:45-12:00</text><text x="294" y="116" fill="#26245d" font-size="26" font-weight="900">金 達</text><text x="294" y="148" fill="#d07f42" font-size="18" textLength="410" lengthAdjust="spacingAndGlyphs">人工智能對於會計產業的影響</text></g>
    <g transform="translate(0 524)"><circle cx="272" cy="120" r="7" fill="#efb0a0"/><text x="82" y="126" fill="#26245d" font-size="24" font-weight="700">12:00-12:15</text><text x="294" y="116" fill="#26245d" font-size="26" font-weight="900">謝劉燁</text><text x="294" y="148" fill="#d07f42" font-size="13" textLength="446" lengthAdjust="spacingAndGlyphs">心得分享－淺談AI發展浪潮下企業營業秘密保護因應對策</text></g>
    <g transform="translate(0 644)"><circle cx="272" cy="120" r="7" fill="#efb0a0"/><text x="82" y="126" fill="#26245d" font-size="24" font-weight="700">13:50-14:05</text><text x="294" y="116" fill="#26245d" font-size="26" font-weight="900">徐芯怡</text><text x="294" y="148" fill="#d07f42" font-size="14" textLength="442" lengthAdjust="spacingAndGlyphs">美國與臺灣醫療制度的比較－以闌尾炎為例</text></g>
    <g transform="translate(0 716)"><circle cx="272" cy="120" r="7" fill="#efb0a0"/><text x="82" y="126" fill="#26245d" font-size="24" font-weight="700">14:05-14:20</text><text x="294" y="116" fill="#26245d" font-size="26" font-weight="900">羅福山</text><text x="394" y="116" fill="#6b5f48" font-size="15" font-weight="700">工研院</text><text x="294" y="148" fill="#d07f42" font-size="17" textLength="422" lengthAdjust="spacingAndGlyphs">防禦科技產業供應鏈的全球化</text></g>
    <g transform="translate(0 788)"><circle cx="272" cy="120" r="7" fill="#efb0a0"/><text x="82" y="126" fill="#26245d" font-size="24" font-weight="700">14:20-14:35</text><text x="294" y="116" fill="#26245d" font-size="26" font-weight="900">蘇蘭珺</text><text x="394" y="116" fill="#6b5f48" font-size="15" font-weight="700">工研院</text><text x="294" y="148" fill="#d07f42" font-size="17" textLength="422" lengthAdjust="spacingAndGlyphs">防禦科技產業供應鏈的全球化</text></g>
    <g transform="translate(0 884)"><circle cx="272" cy="120" r="7" fill="#efb0a0"/><text x="82" y="126" fill="#26245d" font-size="24" font-weight="700">14:45-15:00</text><text x="294" y="116" fill="#26245d" font-size="26" font-weight="900">詹彬禮</text><text x="294" y="148" fill="#d07f42" font-size="18" textLength="410" lengthAdjust="spacingAndGlyphs">AI強化的自主移動機器人：基於視覺的決策系統</text></g>
    <g transform="translate(0 956)"><circle cx="272" cy="120" r="7" fill="#efb0a0"/><text x="82" y="126" fill="#26245d" font-size="24" font-weight="700">15:00-15:15</text><text x="294" y="116" fill="#26245d" font-size="26" font-weight="900">楊怡珠</text><text x="394" y="116" fill="#6b5f48" font-size="15" font-weight="700">崧旭資訊</text><text x="294" y="148" fill="#d07f42" font-size="16" textLength="430" lengthAdjust="spacingAndGlyphs">共享開發文件在軟體發展中的重要性</text></g>
    <g transform="translate(0 1028)"><circle cx="272" cy="120" r="7" fill="#efb0a0"/><text x="82" y="126" fill="#26245d" font-size="24" font-weight="700">15:15-15:30</text><text x="294" y="116" fill="#26245d" font-size="26" font-weight="900">郭恩美</text><text x="394" y="116" fill="#6b5f48" font-size="15" font-weight="700">金融研訓院</text><text x="294" y="148" fill="#d07f42" font-size="18" textLength="410" lengthAdjust="spacingAndGlyphs">人工智能在招募流程中的應用</text></g>
    <g transform="translate(0 1100)"><circle cx="272" cy="120" r="7" fill="#efb0a0"/><text x="82" y="126" fill="#26245d" font-size="24" font-weight="700">15:30-15:45</text><text x="294" y="116" fill="#26245d" font-size="26" font-weight="900">彭 毅</text><text x="394" y="116" fill="#6b5f48" font-size="15" font-weight="700">台北市電腦公會</text><text x="294" y="148" fill="#d07f42" font-size="20" textLength="402" lengthAdjust="spacingAndGlyphs">產業銜接</text></g>
  </g>
</svg>