<svg xmlns="http://www.w3.org/2000/svg" width="768" height="1280" viewBox="0 0 768 1280">
  <defs>
    <pattern id="grid646" width="24" height="24" patternUnits="userSpaceOnUse">
      <path d="M 24 0 L 0 0 0 24" fill="none" stroke="#ece8e1" stroke-width="1"/>
    </pattern>
  </defs>
  <rect width="768" height="1280" fill="#fbf8f2"/>
  <rect width="768" height="1280" fill="url(#grid646)"/>
  <circle cx="632" cy="924" r="88" fill="#f6d983" opacity="0.55"/>
  <circle cx="680" cy="976" r="48" fill="#ffea00" opacity="0.95"/>
  <text x="44" y="78" fill="#f0b73b" font-size="40" font-weight="800" font-family="Noto Sans TC, Microsoft JhengHei, sans-serif">A</text>
  <text x="40" y="122" fill="#f0b73b" font-size="40" font-weight="800" font-family="Noto Sans TC, Microsoft JhengHei, sans-serif">6</text>
  <text x="40" y="166" fill="#f0b73b" font-size="40" font-weight="800" font-family="Noto Sans TC, Microsoft JhengHei, sans-serif">4</text>
  <text x="40" y="210" fill="#f0b73b" font-size="40" font-weight="800" font-family="Noto Sans TC, Microsoft JhengHei, sans-serif">6</text>
  <text x="26" y="302" fill="#f0b73b" font-size="30" font-weight="800" font-family="Noto Sans TC, Microsoft JhengHei, sans-serif">階梯型會議廳</text>
  <text x="30" y="400" fill="#7f6f59" font-size="16" font-family="Noto Sans TC, Microsoft JhengHei, sans-serif">地緣政治・軍事戰略・政策・經貿</text>
  <line x1="272" y1="82" x2="272" y2="1168" stroke="#efb0a0" stroke-width="4"/>
  <g font-family="Noto Sans TC, Microsoft JhengHei, sans-serif">
    <g transform="translate(0 0)"><circle cx="272" cy="120" r="7" fill="#efb0a0"/><text x="82" y="126" fill="#26245d" font-size="24" font-weight="700">10:05-10:20</text><text x="294" y="116" fill="#26245d" font-size="26" font-weight="900">伯煜昆</text><text x="404" y="116" fill="#6b5f48" font-size="15" font-weight="700">國策院</text><text x="294" y="148" fill="#d07f42" font-size="20" textLength="402" lengthAdjust="spacingAndGlyphs">臺灣政府如何維持現狀</text></g>
    <g transform="translate(0 74)"><circle cx="272" cy="120" r="7" fill="#efb0a0"/><text x="82" y="126" fill="#26245d" font-size="24" font-weight="700">10:20-10:35</text><text x="294" y="116" fill="#26245d" font-size="26" font-weight="900">宋詩琳</text><text x="294" y="148" fill="#d07f42" font-size="18" textLength="410" lengthAdjust="spacingAndGlyphs">2016年政黨輪替後民進黨與國民黨兩岸政策的差異性</text></g>
    <g transform="translate(0 148)"><circle cx="272" cy="120" r="7" fill="#efb0a0"/><text x="82" y="126" fill="#26245d" font-size="24" font-weight="700">10:35-10:50</text><text x="294" y="116" fill="#26245d" font-size="26" font-weight="900">羅福山</text><text x="294" y="148" fill="#d07f42" font-size="18" textLength="410" lengthAdjust="spacingAndGlyphs">美國科技巨頭對政府決策之影響及其對臺的利弊</text></g>
    <g transform="translate(0 222)"><circle cx="272" cy="120" r="7" fill="#efb0a0"/><text x="82" y="126" fill="#26245d" font-size="24" font-weight="700">10:50-11:05</text><text x="294" y="116" fill="#26245d" font-size="26" font-weight="900">蘇蘭珺</text><text x="294" y="148" fill="#d07f42" font-size="20" textLength="402" lengthAdjust="spacingAndGlyphs">臺灣關鍵基礎設施與國家安全</text></g>
    <g transform="translate(0 320)"><circle cx="272" cy="120" r="7" fill="#efb0a0"/><text x="82" y="126" fill="#26245d" font-size="24" font-weight="700">11:15-11:30</text><text x="294" y="116" fill="#26245d" font-size="26" font-weight="900">英 慧</text><text x="294" y="148" fill="#d07f42" font-size="20" textLength="402" lengthAdjust="spacingAndGlyphs">臺灣勞基法與加班現況</text></g>
    <g transform="translate(0 394)"><circle cx="272" cy="120" r="7" fill="#efb0a0"/><text x="82" y="126" fill="#26245d" font-size="24" font-weight="700">11:30-11:45</text><text x="294" y="116" fill="#26245d" font-size="26" font-weight="900">郭恩美</text><text x="294" y="148" fill="#d07f42" font-size="18" textLength="410" lengthAdjust="spacingAndGlyphs">美國關稅政策對臺灣農漁產品出口影響之分析</text></g>
    <g transform="translate(0 468)"><circle cx="272" cy="120" r="7" fill="#efb0a0"/><text x="82" y="126" fill="#26245d" font-size="24" font-weight="700">11:45-12:00</text><text x="294" y="116" fill="#26245d" font-size="26" font-weight="900">淦波帆</text><text x="294" y="148" fill="#d07f42" font-size="18" textLength="410" lengthAdjust="spacingAndGlyphs">中國「一帶一路」倡議對臺灣的影響</text></g>
    <g transform="translate(0 542)"><circle cx="272" cy="120" r="7" fill="#efb0a0"/><text x="82" y="126" fill="#26245d" font-size="24" font-weight="700">12:00-12:15</text><text x="294" y="116" fill="#26245d" font-size="26" font-weight="900">何維明</text><text x="294" y="148" fill="#d07f42" font-size="20" textLength="402" lengthAdjust="spacingAndGlyphs">伊朗戰爭的原因與影響</text></g>
    <g transform="translate(0 666)"><circle cx="272" cy="120" r="7" fill="#efb0a0"/><text x="82" y="126" fill="#26245d" font-size="24" font-weight="700">13:50-14:05</text><text x="294" y="116" fill="#26245d" font-size="26" font-weight="900">伯煜昆</text><text x="294" y="148" fill="#d07f42" font-size="15" textLength="438" lengthAdjust="spacingAndGlyphs">反送中之後香港人移民到國外：以台灣、加拿大、以及英國為比較分析</text></g>
    <g transform="translate(0 740)"><circle cx="272" cy="120" r="7" fill="#efb0a0"/><text x="82" y="126" fill="#26245d" font-size="24" font-weight="700">14:05-14:20</text><text x="294" y="116" fill="#26245d" font-size="26" font-weight="900">馬麗莎</text><text x="294" y="148" fill="#d07f42" font-size="20" textLength="402" lengthAdjust="spacingAndGlyphs">臺灣的城市外交－以桃園為例</text></g>
    <g transform="translate(0 814)"><circle cx="272" cy="120" r="7" fill="#efb0a0"/><text x="82" y="126" fill="#26245d" font-size="24" font-weight="700">14:20-14:35</text><text x="294" y="116" fill="#26245d" font-size="26" font-weight="900">白敏樂</text><text x="294" y="148" fill="#d07f42" font-size="14" textLength="442" lengthAdjust="spacingAndGlyphs">中國在拉丁美洲的軍民兩用基礎建設－以阿根廷烏肯省深空站為例</text></g>
    <g transform="translate(0 912)"><circle cx="272" cy="120" r="7" fill="#efb0a0"/><text x="82" y="126" fill="#26245d" font-size="24" font-weight="700">14:45-15:00</text><text x="294" y="116" fill="#26245d" font-size="26" font-weight="900">英 慧</text><text x="388" y="116" fill="#6b5f48" font-size="15" font-weight="700">碁石智庫</text><text x="294" y="148" fill="#d07f42" font-size="20" textLength="402" lengthAdjust="spacingAndGlyphs">金融資料分析過程</text></g>
    <g transform="translate(0 986)"><circle cx="272" cy="120" r="7" fill="#efb0a0"/><text x="82" y="126" fill="#26245d" font-size="24" font-weight="700">15:00-15:15</text><text x="294" y="116" fill="#26245d" font-size="26" font-weight="900">賀 新</text><text x="294" y="148" fill="#d07f42" font-size="18" textLength="410" lengthAdjust="spacingAndGlyphs">虛假訊息對臺灣關鍵基礎設施的威脅</text></g>
    <g transform="translate(0 1060)"><circle cx="272" cy="120" r="7" fill="#efb0a0"/><text x="82" y="126" fill="#26245d" font-size="24" font-weight="700">15:15-15:30</text><text x="294" y="116" fill="#26245d" font-size="26" font-weight="900">麥世寧</text><text x="294" y="148" fill="#d07f42" font-size="15" textLength="438" lengthAdjust="spacingAndGlyphs">臺灣半總統制的理論與現實：從制度設計到政治運作的權責分析</text></g>
  </g>
</svg>